# xmcd
#
# Track frame offsets:
#	150
#	15662
#	32670
#	45232
#	62095
#	75587
#	89055
#	104150
#	122215
#	146442
#	155740
#	166805
#	185255
#	199495
#	224057
#	241575
#
# Disc length: 3572 seconds
#
# Revision: 1
# Processed by: cddbd v1.5.1PL0 Copyright (c) Steve Scherf et al.
# Submitted via: CDex 1.50Beta5
#
DISCID=e00df210
DTITLE=さまざまなアーティスト - across the sea  〜a tribute to weezer〜
DYEAR=1900
DGENRE=
TTITLE0="CORNER"磯部正文/island in the sun
TTITLE1=Hermann H.&the Pacemakers/in the garage
TTITLE2=bus tribute/buddy holly
TTITLE3=REACH/i just threw out the love of my dreams
TTITLE4=スムルース/smile
TTITLE5=nudge'em all/don't let go
TTITLE6=SPOONY/undone-the sweater song
TTITLE7=Asimov/say it ain't so
TTITLE8=NATSUMEN&hidaka/surf wax america
TTITLE9=SHORT CIRCUIT/i do
TTITLE10=サンプリングサン/why bother?
TTITLE11=つばき/jamie
TTITLE12=COME BACK MY DAUGHTERS/pink triangle
TTITLE13=PLECTRUM/across the sea
TTITLE14=SOME SMALL HOPE/the good life
TTITLE15=clingon/butterfly
EXTD=
EXTT0=
EXTT1=
EXTT2=
EXTT3=
EXTT4=
EXTT5=
EXTT6=
EXTT7=
EXTT8=
EXTT9=
EXTT10=
EXTT11=
EXTT12=
EXTT13=
EXTT14=
EXTT15=
PLAYORDER=
